<svg id="visual" viewBox="0 0 540 960" width="540" height="960" xmlns="http://www.w3.org/2000/svg" xmlns:xlink="http://www.w3.org/1999/xlink" version="1.1"><rect x="0" y="0" width="540" height="960" fill="#480000"></rect><defs><linearGradient id="grad1_0" x1="0%" y1="100%" x2="100%" y2="0%"><stop offset="30%" stop-color="#fcaf3c" stop-opacity="1"></stop><stop offset="70%" stop-color="#fcaf3c" stop-opacity="1"></stop></linearGradient></defs><defs><linearGradient id="grad1_1" x1="0%" y1="100%" x2="100%" y2="0%"><stop offset="30%" stop-color="#fcaf3c" stop-opacity="1"></stop><stop offset="70%" stop-color="#480000" stop-opacity="1"></stop></linearGradient></defs><defs><linearGradient id="grad2_0" x1="0%" y1="100%" x2="100%" y2="0%"><stop offset="30%" stop-color="#fcaf3c" stop-opacity="1"></stop><stop offset="70%" stop-color="#fcaf3c" stop-opacity="1"></stop></linearGradient></defs><defs><linearGradient id="grad2_1" x1="0%" y1="100%" x2="100%" y2="0%"><stop offset="30%" stop-color="#480000" stop-opacity="1"></stop><stop offset="70%" stop-color="#fcaf3c" stop-opacity="1"></stop></linearGradient></defs><g transform="translate(540, 960)"><path d="M-405 0C-386.7 -66 -368.3 -131.9 -336.9 -194.5C-305.4 -257.1 -260.8 -316.2 -202.5 -350.7C-144.2 -385.3 -72.1 -395.1 0 -405L0 0Z" fill="#a75023"></path><path d="M-202.5 0C-193.3 -33 -184.2 -66 -168.4 -97.3C-152.7 -128.5 -130.4 -158.1 -101.3 -175.4C-72.1 -192.6 -36 -197.6 0 -202.5L0 0Z" fill="#fcaf3c"></path></g><g transform="translate(0, 0)"><path d="M405 0C388.5 67 372 134.1 340.3 196.5C308.7 258.9 261.8 316.8 202.5 350.7C143.2 384.7 71.6 394.9 0 405L0 0Z" fill="#a75023"></path><path d="M202.5 0C194.3 33.5 186 67 170.2 98.2C154.3 129.5 130.9 158.4 101.3 175.4C71.6 192.4 35.8 197.4 0 202.5L0 0Z" fill="#fcaf3c"></path></g></svg>