<svg id="visual" viewBox="0 0 900 600" width="900" height="600" xmlns="http://www.w3.org/2000/svg" xmlns:xlink="http://www.w3.org/1999/xlink" version="1.1"><rect x="0" y="0" width="900" height="600" fill="#480000"></rect><defs><linearGradient id="grad1_0" x1="33.3%" y1="0%" x2="100%" y2="100%"><stop offset="20%" stop-color="#fcaf3c" stop-opacity="1"></stop><stop offset="80%" stop-color="#fcaf3c" stop-opacity="1"></stop></linearGradient></defs><defs><linearGradient id="grad1_1" x1="33.3%" y1="0%" x2="100%" y2="100%"><stop offset="20%" stop-color="#fcaf3c" stop-opacity="1"></stop><stop offset="80%" stop-color="#480000" stop-opacity="1"></stop></linearGradient></defs><defs><linearGradient id="grad2_0" x1="0%" y1="0%" x2="66.7%" y2="100%"><stop offset="20%" stop-color="#fcaf3c" stop-opacity="1"></stop><stop offset="80%" stop-color="#fcaf3c" stop-opacity="1"></stop></linearGradient></defs><defs><linearGradient id="grad2_1" x1="0%" y1="0%" x2="66.7%" y2="100%"><stop offset="20%" stop-color="#480000" stop-opacity="1"></stop><stop offset="80%" stop-color="#fcaf3c" stop-opacity="1"></stop></linearGradient></defs><g transform="translate(900, 0)"><path d="M0 297.5C-33.6 279.1 -67.2 260.7 -102.6 247.6C-137.9 234.5 -175.1 226.8 -205.8 205.8C-236.4 184.7 -260.6 150.3 -274.8 113.8C-289 77.3 -293.2 38.7 -297.5 0L0 0Z" fill="#a75023"></path><path d="M0 148.7C-16.8 139.5 -33.6 130.3 -51.3 123.8C-69 117.3 -87.5 113.4 -102.9 102.9C-118.2 92.4 -130.3 75.2 -137.4 56.9C-144.5 38.7 -146.6 19.3 -148.7 0L0 0Z" fill="#fcaf3c"></path></g><g transform="translate(0, 600)"><path d="M0 -297.5C38.9 -293.5 77.8 -289.4 113.8 -274.8C149.9 -260.2 183.1 -234.9 204.4 -204.4C225.6 -173.8 235 -137.9 248.5 -102.9C262.1 -68 279.8 -34 297.5 0L0 0Z" fill="#a75023"></path><path d="M0 -148.7C19.4 -146.7 38.9 -144.7 56.9 -137.4C74.9 -130.1 91.5 -117.5 102.2 -102.2C112.8 -86.9 117.5 -68.9 124.3 -51.5C131 -34 139.9 -17 148.7 0L0 0Z" fill="#fcaf3c"></path></g></svg>